<svg width="256" height="256" viewBox="0 0 256 256" fill="none" xmlns="http://www.w3.org/2000/svg">
<rect width="256" height="256" fill="white"/>
<path d="M100.676 94.04L78.34 33.88H86.66L108.996 94.04H100.676ZM134.571 94.04L112.235 33.88H120.555L142.891 94.04H134.571ZM105.54 158.68C99.0547 156.973 94.0413 153.965 90.5 149.656C86.9587 145.304 85.188 140.013 85.188 133.784V122.2C85.188 118.104 85.9987 114.392 87.62 111.064C89.284 107.693 91.6307 104.835 94.66 102.488C97.732 100.099 101.359 98.3493 105.54 97.24V105.112C103.023 105.709 100.825 106.797 98.948 108.376C97.1133 109.955 95.7053 111.917 94.724 114.264C93.7427 116.611 93.252 119.256 93.252 122.2V133.784C93.252 136.643 93.7427 139.245 94.724 141.592C95.7053 143.896 97.1133 145.837 98.948 147.416C100.825 148.952 103.023 150.019 105.54 150.616V158.68ZM127.595 151.576C124.608 151.576 122.006 151.021 119.787 149.912C117.611 148.76 115.904 147.16 114.667 145.112C113.472 143.021 112.875 140.568 112.875 137.752V129.048C112.875 126.232 113.472 123.8 114.667 121.752C115.904 119.661 117.611 118.061 119.787 116.952C122.006 115.8 124.608 115.224 127.595 115.224C130.624 115.224 133.227 115.8 135.403 116.952C137.579 118.061 139.264 119.661 140.459 121.752C141.696 123.8 142.315 126.211 142.315 128.984V137.752C142.315 140.568 141.696 143.021 140.459 145.112C139.264 147.16 137.579 148.76 135.403 149.912C133.227 151.021 130.624 151.576 127.595 151.576ZM127.595 144.6C129.728 144.6 131.371 144.024 132.523 142.872C133.718 141.677 134.315 139.971 134.315 137.752V129.048C134.315 126.787 133.718 125.08 132.523 123.928C131.371 122.776 129.728 122.2 127.595 122.2C125.504 122.2 123.862 122.776 122.667 123.928C121.472 125.08 120.875 126.787 120.875 129.048V137.752C120.875 139.971 121.472 141.677 122.667 142.872C123.862 144.024 125.504 144.6 127.595 144.6ZM147.154 147.416V140.056L165.714 131.48C166.567 131.096 167.399 130.776 168.21 130.52C169.063 130.221 169.725 130.029 170.194 129.944C169.725 129.859 169.063 129.709 168.21 129.496C167.357 129.24 166.525 128.92 165.714 128.536L147.154 119.896V112.408L175.826 125.912V133.912L147.154 147.416ZM105.54 222.68C99.0547 220.973 94.0413 217.965 90.5 213.656C86.9587 209.304 85.188 204.013 85.188 197.784V186.2C85.188 182.104 85.9987 178.392 87.62 175.064C89.284 171.693 91.6307 168.835 94.66 166.488C97.732 164.099 101.359 162.349 105.54 161.24V169.112C103.023 169.709 100.825 170.797 98.948 172.376C97.1133 173.955 95.7053 175.917 94.724 178.264C93.7427 180.611 93.252 183.256 93.252 186.2V197.784C93.252 200.643 93.7427 203.245 94.724 205.592C95.7053 207.896 97.1133 209.837 98.948 211.416C100.825 212.952 103.023 214.019 105.54 214.616V222.68ZM139.435 222.68C132.95 220.973 127.936 217.965 124.395 213.656C120.854 209.304 119.083 204.013 119.083 197.784V186.2C119.083 182.104 119.894 178.392 121.515 175.064C123.179 171.693 125.526 168.835 128.555 166.488C131.627 164.099 135.254 162.349 139.435 161.24V169.112C136.918 169.709 134.72 170.797 132.843 172.376C131.008 173.955 129.6 175.917 128.619 178.264C127.638 180.611 127.147 183.256 127.147 186.2V197.784C127.147 200.643 127.638 203.245 128.619 205.592C129.6 207.896 131.008 209.837 132.843 211.416C134.72 212.952 136.918 214.019 139.435 214.616V222.68ZM149.65 222.68V214.616C152.21 214.019 154.407 212.952 156.242 211.416C158.077 209.837 159.485 207.896 160.466 205.592C161.447 203.245 161.938 200.643 161.938 197.784V186.2C161.938 183.256 161.447 180.611 160.466 178.264C159.485 175.917 158.077 173.955 156.242 172.376C154.407 170.797 152.21 169.709 149.65 169.112V161.24C153.874 162.349 157.501 164.099 160.53 166.488C163.559 168.835 165.885 171.693 167.506 175.064C169.17 178.392 170.002 182.104 170.002 186.2V197.784C170.002 204.013 168.231 209.304 164.69 213.656C161.149 217.965 156.135 220.973 149.65 222.68Z" fill="#191926"/>
</svg>
